<svg xmlns="http://www.w3.org/2000/svg" viewBox="0 0 504 512"><defs><style>.cls-1{fill:#e6e6e6;}</style></defs><g id="Layer_2" data-name="Layer 2"><g id="Layer_2-2" data-name="Layer 2"><path class="cls-1" d="M450.75,98.6l-21,22.32A225.53,225.53,0,0,1,424.27,399c-.52-4.09-1-8.8-1.27-14a195.37,195.37,0,0,1,1-33c1.54-14.16,2.95-39.42,2-88a48.09,48.09,0,0,0-14-27l14-3c1-.06,6.6-.5,10-5,4-5.31,1.71-12,1-14a20,20,0,0,0-10-11H406a42.56,42.56,0,0,0-7,8,43.19,43.19,0,0,0-5,10l-19-43-14,12,11,29-243-2,24-50a18.55,18.55,0,0,1,15-13l126-3-17-19-112,4c-2.15-.11-12.07-.36-20,7a26.18,26.18,0,0,0-7,11c-6.41,12.16-12.8,25.16-19,39q-6,13.29-11,26a39,39,0,0,0-13-17l-20,2a15.83,15.83,0,0,0-8,8,16.16,16.16,0,0,0,0,12,18.59,18.59,0,0,0,7,9l18,4a54.45,54.45,0,0,0-17,27l3,57q1,27.5,2,55-.36,8.19-.71,16.38A224.08,224.08,0,0,1,33,256.5C33,133.06,132,33,254,33A218.3,218.3,0,0,1,383.58,75.44l22.76-21.81A248.35,248.35,0,0,0,252,0C112.82,0,0,114.62,0,256S112.82,512,252,512,504,397.38,504,256A257.46,257.46,0,0,0,450.75,98.6ZM181,287c.88-3.38,3.8-5.31,5-6l126-1a10.89,10.89,0,0,1,0,21H190C183.2,298.11,179.72,291.9,181,287Zm1,44H319a9.94,9.94,0,0,1,0,19H183a10.2,10.2,0,0,1-1-19ZM92,271c3.14-8.69,11.82-11.62,13-12a225.34,225.34,0,0,1,31,9c7.36,2.73,15.76,6.29,23,14,4.3,4.57,5.23,7.46,5,10-.57,6.23-8.15,9.63-9,10l-47-1a28,28,0,0,1-14-13C92.57,285.1,89.29,278.49,92,271ZM254,480A219.12,219.12,0,0,1,95.46,412.2,31.12,31.12,0,0,0,97,408h23a14.61,14.61,0,0,0,7-4,15.2,15.2,0,0,0,4-11q.5-10.5,1-21H372v18c-.16.95-1.31,8.55,4,14a15.09,15.09,0,0,0,7,4h23l2.88,7.92A219,219,0,0,1,254,480ZM409,290c-4,9.42-14.76,11.75-16,12H346a21.67,21.67,0,0,1-4-9,23.7,23.7,0,0,1,0-8c1.88-9.14,16-14.42,26-18a128.14,128.14,0,0,1,32-7,32.47,32.47,0,0,1,8,12C409.45,275.84,412.08,282.83,409,290Z"/><path class="cls-1" d="M441,39l-95,96-30-31a19.43,19.43,0,0,0-23,29l43,43a17.68,17.68,0,0,0,9,3,18.12,18.12,0,0,0,12-4L466,63a18,18,0,0,0-25-24Z"/></g></g></svg>